<svg width="50" height="53" viewBox="0 0 50 53" fill="none" xmlns="http://www.w3.org/2000/svg">
<g opacity="0.75" clip-path="url(#clip0_6021_8379)">
<path d="M24.629 0.53418C25.8589 1.57809 30.1218 4.88056 34.8774 4.88056C38.5905 4.88056 43.6353 2.34458 45.0062 1.61722C45.4597 2.06893 48.5122 5.10819 48.9889 5.58302C48.3944 6.58958 46.8538 9.57549 46.8538 13.4364C46.8538 17.957 47.5875 21.7254 48.232 25.0492C48.7122 27.5212 49.1299 29.657 49.1299 31.5617C49.1299 36.9377 46.404 41.5455 41.0343 45.2624C36.4662 48.4243 30.8912 50.3432 27.2031 51.613C26.1999 51.9598 25.3305 52.2603 24.629 52.5324C23.9274 52.2603 23.0599 51.9598 22.0584 51.6148C18.3685 50.345 12.7954 48.4243 8.22544 45.2641C2.85399 41.5491 0.129883 36.9377 0.129883 31.5635C0.129883 29.6588 0.545818 27.523 1.02602 25.051C1.67402 21.7272 2.40414 17.957 2.40414 13.4381C2.40414 9.57549 0.861786 6.59136 0.269123 5.58302C0.745752 5.10819 3.79832 2.06715 4.24996 1.61722C5.62094 2.34635 10.6639 4.88056 14.3788 4.88056C19.1344 4.88056 23.399 1.57809 24.6272 0.53418H24.629Z" fill="#555555"/>
<path d="M44.9972 33.822C44.9972 27.619 42.714 22.7018 42.714 16.8278C42.714 10.9538 44.2296 8.41068 46.1254 6.6394C45.456 8.19727 44.7045 11.3539 44.7045 14.5621C44.7045 19.8386 46.9823 26.4168 46.9823 31.5564C46.9823 35.9081 45.2025 39.9646 41.5769 42.8936C43.8155 40.4572 44.9972 37.1263 44.9972 33.8238V33.822Z" fill="white"/>
<path d="M10.6121 13.3759L12.2937 13.0203V20.301L14.9053 19.7586V21.2844L10.6121 22.1861V13.3759Z" fill="white"/>
<path d="M27.578 33.2814C27.0246 33.3952 26.5676 33.0627 26.5676 32.5469C26.5676 31.8889 27.0246 31.5084 27.578 31.3945C28.1296 31.2807 28.5866 31.6133 28.5866 32.129C28.5866 32.7746 28.1296 33.1676 27.578 33.2832V33.2814Z" fill="white"/>
<path d="M35.8218 38.8922C35.1542 39.0362 34.0581 38.8762 33.4976 38.5739L33.9795 37.3645C34.5704 37.6313 34.9364 37.6526 35.4898 37.5957C36.1538 37.5264 36.4448 37.1227 36.4448 36.7955C36.4448 36.3206 35.6308 36.1997 34.8757 35.9063C34.217 35.6502 33.6029 35.1807 33.6029 34.4C33.6029 33.1498 34.3776 32.3691 35.6415 32.1094C36.3805 31.9565 37.2178 32.0827 37.714 32.3424L37.2445 33.5659C36.6394 33.3881 36.2841 33.3383 35.7718 33.4432C35.4076 33.5179 35.1791 33.7206 35.1791 33.9838C35.1791 34.8161 38.0443 34.5725 38.0443 36.4576C38.0443 37.818 37.1624 38.6041 35.8182 38.894L35.8218 38.8922Z" fill="white"/>
<path d="M30.8252 28.967C30.1576 29.111 29.0615 28.951 28.501 28.6486L28.9812 27.4393C29.5721 27.7061 29.9398 27.7274 30.4914 27.6705C31.1555 27.6012 31.4464 27.1975 31.4464 26.8702C31.4464 26.3954 30.6324 26.2745 29.8773 25.981C29.2204 25.725 28.6063 25.2555 28.6063 24.473C28.6063 23.2228 29.3793 22.4421 30.6449 22.1824C31.384 22.0295 32.2212 22.1557 32.7175 22.4154L32.248 23.6389C31.6428 23.4629 31.2876 23.4113 30.7752 23.5162C30.4111 23.5909 30.1826 23.7936 30.1826 24.0568C30.1826 24.8891 33.0477 24.6455 33.0477 26.5288C33.0477 27.8893 32.1658 28.6753 30.8216 28.9652L30.8252 28.967Z" fill="white"/>
<path d="M38.0872 11.2845C37.7676 11.2276 37.532 11.2596 37.1553 11.3379C36.7376 11.4232 36.4002 11.7149 36.1307 12.1364V16.9006L34.5437 17.2385V10.4985L36.1307 10.1837L36.1414 10.8452C36.402 10.4131 36.8983 9.93115 37.4231 9.82267C37.8926 9.72486 38.2032 9.77466 38.5406 9.93115L38.0872 11.2863V11.2845Z" fill="white"/>
<path d="M23.8133 12.5969C24.4203 12.4778 24.8201 12.7374 25.045 12.9633L25.0379 12.4813L26.6267 12.1434V18.3696C26.6267 20.3453 25.9947 21.3075 23.5723 22.1095L23.0475 20.9269C24.7023 20.2938 25.0379 19.8332 25.0379 18.6381C24.688 19.0631 24.19 19.401 23.6794 19.5095C22.5369 19.7514 21.6194 18.8302 21.6194 16.5005C21.6194 14.4873 22.2656 12.9064 23.8133 12.5969ZM24.0561 18.0477C24.4452 17.9659 24.8505 17.5924 25.0379 17.2901L25.045 14.3878C24.8308 14.1423 24.472 13.8453 24.0293 13.936C23.4634 14.0516 23.2349 14.5798 23.2349 16.1163C23.2349 17.5622 23.3974 18.1828 24.0561 18.0477Z" fill="white"/>
<path d="M17.9561 31.6791C16.8011 31.9974 15.8657 31.0549 15.8657 28.7252C15.8657 26.7121 16.2977 25.1684 18.0596 24.8234C18.5327 24.7309 18.9736 24.8341 19.2842 25.0724V22.5862L20.873 22.2572V30.9766L19.2842 31.3145L19.336 30.5605C19.0557 31.1064 18.6648 31.4835 17.9579 31.6791H17.9561ZM18.2739 26.1625C17.708 26.2799 17.4795 26.8045 17.4795 28.3411C17.4795 29.7869 17.6491 30.4431 18.3006 30.2724C18.8933 30.1159 19.1379 29.6126 19.2753 29.353L19.2807 26.52C19.0665 26.2746 18.7166 26.0701 18.2739 26.1625Z" fill="white"/>
<path d="M17.8812 13.8472C19.6592 13.4791 20.5893 14.9089 20.5893 16.7211C20.5893 16.8971 20.5768 17.0874 20.5625 17.267L16.9958 18.0193C17.0618 19.0241 17.5063 19.3869 18.1258 19.2588C18.6917 19.1415 18.9202 18.9049 19.229 18.4497L20.3608 19.0081C19.8359 19.9222 19.1433 20.461 18.2132 20.6549C16.4638 21.0177 15.3945 19.835 15.3945 17.7952C15.3945 15.5811 16.3478 14.1655 17.8812 13.8472ZM17.9919 15.1437C17.3992 15.2646 17.0761 15.8123 16.9958 16.7976L19.0005 16.3939C18.9184 15.6025 18.6774 15.0014 17.9919 15.1437Z" fill="white"/>
<path d="M30.4663 11.2081C32.2425 10.8399 33.1725 12.2697 33.1725 14.0819C33.1725 14.258 33.16 14.4892 33.1457 14.6706L29.579 15.3801C29.6451 16.3849 30.0896 16.7477 30.709 16.6197C31.2749 16.5023 31.5034 16.2658 31.8122 15.8123L32.944 16.3707C32.4174 17.2848 31.7266 17.8236 30.7965 18.0175C29.0471 18.3803 27.9778 17.1977 27.9778 15.1578C27.9778 12.9438 28.931 11.5282 30.4663 11.2098V11.2081ZM30.5769 12.5045C29.9843 12.6254 29.6612 13.1732 29.5808 14.1584L31.5873 13.7849C31.5052 12.9953 31.2642 12.3622 30.5787 12.5045H30.5769Z" fill="white"/>
<path d="M24.7271 23.3509C26.5051 22.9827 27.4351 24.4126 27.4351 26.2247C27.4351 26.4008 27.4226 26.6107 27.4083 26.7885L23.8417 27.5212C23.9077 28.526 24.3522 28.8888 24.9716 28.7607C25.5375 28.6433 25.766 28.4068 26.0766 27.9516L27.2084 28.51C26.6818 29.4241 25.9892 29.9629 25.0609 30.155C23.3115 30.5178 22.2422 29.3351 22.2422 27.2971C22.2422 25.083 23.1937 23.6674 24.7289 23.3491L24.7271 23.3509ZM24.8378 24.6473C24.2433 24.7682 23.922 25.316 23.8417 26.3012L25.8464 25.9046C25.7642 25.1133 25.5233 24.505 24.8378 24.6473Z" fill="white"/>
<path d="M22.6938 34.7343C24.47 34.3662 25.4 35.796 25.4 37.6082C25.4 37.7842 25.3876 37.9976 25.3733 38.1773L21.8066 38.9046C21.8726 39.9094 22.3171 40.2722 22.9366 40.1441C23.5025 40.0268 23.7292 39.7902 24.0398 39.335L25.1716 39.8934C24.6467 40.8075 23.9523 41.3463 23.024 41.5402C21.2746 41.903 20.2053 40.7203 20.2053 38.6805C20.2053 36.4664 21.1586 35.0508 22.6938 34.7325V34.7343ZM22.8027 36.0307C22.21 36.1517 21.8887 36.6994 21.8066 37.6846L23.8113 37.2721C23.7292 36.4807 23.4882 35.8885 22.8027 36.0307Z" fill="white"/>
<path d="M18.8755 42.3351V33.5392L17.1939 33.8842V37.368L15.0393 37.8126V34.3252L13.3577 34.6702V43.4732L15.0393 43.1265V39.3492L17.1939 38.9028V42.6819L18.8755 42.3351Z" fill="white"/>
<path d="M26.7817 34.0657V40.7186L28.3705 40.3914V33.7402L26.7817 34.0657Z" fill="white"/>
<path d="M30.3772 39.9735L31.9642 39.6463V30.8557L30.3772 31.1616V39.9735Z" fill="white"/>
</g>
<defs>
<clipPath id="clip0_6021_8379">
<rect width="49" height="52" fill="white" transform="translate(0.129883 0.53418)"/>
</clipPath>
</defs>
</svg>
