<svg width="92" height="49" viewBox="0 0 92 49" fill="none" xmlns="http://www.w3.org/2000/svg">
<g opacity="0.75" clip-path="url(#clip0_6021_8488)">
<path d="M12.1472 20.0017C11.9605 20.1817 11.76 20.3877 11.5515 20.6036C11.5833 20.6256 11.615 20.6476 11.6488 20.6696C11.8096 20.4517 11.9784 20.2257 12.1491 20.0017H12.1472Z" fill="#231F20"/>
<path d="M11.5514 20.6057C11.5156 20.5817 11.4799 20.5577 11.4441 20.5317C11.3488 20.6957 11.2496 20.8557 11.1562 21.0197C11.2913 20.8737 11.4223 20.7397 11.5514 20.6037V20.6057Z" fill="#231F20"/>
<path d="M11.4442 20.5317C11.4799 20.5557 11.5156 20.5797 11.5514 20.6057C11.7598 20.3898 11.9624 20.1838 12.147 20.0038C11.9763 20.2278 11.8075 20.4537 11.6467 20.6717C11.7718 20.7577 11.8968 20.8417 12.0199 20.9277C12.5481 21.2976 13.0981 21.8216 13.6421 22.3695C14.3668 21.4076 15.1133 20.4617 15.8857 19.5379L15.5064 19.1499C15.2662 18.9259 15.0458 18.71 14.7738 18.48L14.333 18.13C14.1781 18.0081 14.0868 17.9521 13.9597 17.8621L13.3959 17.4741C13.2212 17.7101 13.0544 17.9421 12.8995 18.164C12.3912 18.9319 11.9088 19.7298 11.4402 20.5337L11.4442 20.5317Z" fill="#231F20"/>
<path d="M18.9611 39.1353C19.8347 39.6612 19.5111 39.2333 19.6044 39.1033C19.0782 38.7274 18.5481 38.3574 18.0299 37.9915C17.9425 38.0934 17.8552 38.1934 17.7678 38.2954C18.1649 38.5774 18.562 38.8573 18.9591 39.1353H18.9611Z" fill="#231F20"/>
<path d="M16.0425 37.0616C16.6183 37.4776 17.1941 37.8875 17.7698 38.2954C17.8572 38.1935 17.9446 38.0935 18.0319 37.9915C17.3946 37.5395 16.7831 37.0976 16.2291 36.6656C16.1894 36.7736 16.1259 36.9076 16.0445 37.0596L16.0425 37.0616Z" fill="#231F20"/>
<path d="M22.9619 29.6586C22.5966 29.2906 22.7892 29.1486 22.4219 28.7847C23.5199 29.8766 24.6814 30.9584 23.5397 29.2346C23.2657 28.8467 22.9798 28.4627 22.7018 28.0768C22.4616 28.4227 22.2194 28.7687 21.9712 29.1167C22.4934 29.5686 22.8488 29.7406 22.96 29.6606L22.9619 29.6586Z" fill="#231F20"/>
<path d="M14.6169 23.3614C15.6573 24.4192 16.9618 26.589 17.887 27.1389L16.9598 25.951C18.0816 26.9829 18.8122 28.3347 19.7772 29.4986C19.9042 29.4026 19.9678 29.3546 20.3331 29.7126C19.7335 28.8987 18.7586 27.7368 18.2007 26.8909L18.3893 26.7429C19.0743 27.4928 19.8605 28.8027 20.5237 29.5686C20.5872 29.5206 20.7163 29.4246 20.7798 29.3766C20.8275 29.3406 21.0002 29.5506 21.2047 29.8226C20.889 29.3946 20.4721 28.8327 20.2378 28.5147C20.3013 28.4667 20.4284 28.3707 20.4919 28.3227C20.5555 28.2748 20.8592 28.6807 21.163 29.0906C21.2901 28.9947 21.7209 29.3086 21.4827 28.8507L20.5694 27.6248C21.1154 28.2967 21.5899 28.7807 21.9751 29.1146C22.2233 28.7667 22.4635 28.4207 22.7057 28.0748C21.6693 26.635 20.613 25.2051 19.5071 23.7933C18.8063 22.8974 18.0855 22.0095 17.3291 21.1256C16.9518 20.6857 16.5567 20.2458 16.1517 19.8078L15.8876 19.5378C15.1153 20.4617 14.3687 21.4056 13.644 22.3695C13.9736 22.7014 14.2992 23.0374 14.6189 23.3614H14.6169Z" fill="#231F20"/>
<path d="M11.0967 22.6875C11.5673 22.2155 11.2158 23.0494 11.9008 22.2795C11.4759 22.8814 11.2615 23.1854 10.8505 23.7973C10.8862 23.9273 12.0815 21.8836 11.9465 22.4155C11.5057 22.9714 11.1066 23.6713 10.7234 24.2793C10.9597 24.1473 12.1847 22.2015 12.2483 22.3875C12.0477 22.7274 10.9041 23.9753 11.0034 24.1953C11.0173 24.2393 11.4144 23.6373 11.6308 23.3354C11.0014 24.2873 10.6559 25.0352 10.6103 25.3451C10.5725 25.6531 10.6857 25.5171 11.2416 24.7572C10.8882 25.3171 10.4633 26.085 10.4336 26.669L10.4375 26.665C10.4713 26.379 10.6559 25.8891 10.785 25.6191C10.6381 25.951 10.5328 26.281 10.4852 26.603C10.5189 26.553 10.5547 26.503 10.5924 26.449C10.6639 26.217 10.7552 25.983 10.8624 25.7291C10.7711 25.945 10.6976 26.157 10.648 26.367C10.7532 26.217 10.8664 26.057 10.9835 25.8891C11.3846 25.1951 12.0557 24.5512 12.3634 24.0993C12.7764 23.5134 13.2132 22.9454 13.6441 22.3715C13.1 21.8236 12.5501 21.2996 12.0219 20.9297C11.8988 20.8437 11.7738 20.7597 11.6487 20.6737C11.1682 21.3296 10.7671 21.9235 10.6281 22.2215C9.42891 24.3252 10.3601 23.2854 11.0987 22.6895L11.0967 22.6875Z" fill="#231F20"/>
<path d="M15.1192 35.7358C14.7102 35.4298 15.7168 35.7858 15.4051 35.3498C15.0001 35.0399 14.19 34.418 13.785 34.106C13.5288 33.6041 14.4799 34.038 14.2238 33.5361C13.9676 33.0401 12.2899 31.8963 12.01 31.4383C10.9537 30.3385 12.9253 31.9143 14.1185 32.8442C13.8207 32.4062 14.9127 33.4681 15.012 33.3381C15.2105 33.0801 15.3872 32.8362 13.9776 31.4023C13.642 31.0244 14.1781 31.1524 14.2754 31.0264C11.9623 29.1626 9.66512 27.0989 7.59825 24.8892C6.58963 23.8033 5.69021 22.6754 5.05486 21.5116C4.73719 20.9316 4.489 20.3437 4.32818 19.7598C4.28251 19.6138 4.25075 19.4678 4.22295 19.3218C4.18721 19.1759 4.16736 19.0299 4.15147 18.8839C4.12765 18.7379 4.11772 18.5919 4.11375 18.448C4.10184 18.316 4.10184 18.11 4.09786 18.104C4.07999 17.994 4.10978 17.834 4.23883 17.772C4.26861 17.756 4.30237 17.748 4.33612 17.74C4.3798 17.732 4.3798 17.73 4.48106 17.728C4.75108 17.712 5.02706 17.732 5.30503 17.75C6.41888 17.86 7.57442 18.27 8.70217 18.8459C9.63137 19.3278 10.5427 19.9098 11.4441 20.5237C11.9127 19.7198 12.3951 18.9219 12.9034 18.154C13.0563 17.932 13.2251 17.7001 13.3998 17.4641L13.2429 17.3561C12.7505 17.0281 12.2542 16.7022 11.728 16.3942C10.6876 15.7723 9.55592 15.2024 8.31699 14.7784C7.06614 14.3565 5.73786 14.0985 4.27854 14.1525C3.75239 14.1605 3.17065 14.2445 2.67428 14.4525C2.17196 14.6584 1.72721 14.9944 1.38373 15.4163C1.03826 15.8363 0.801985 16.3442 0.65506 16.8822C0.583583 17.1521 0.535932 17.4281 0.50615 17.71C0.480339 17.954 0.478354 18.122 0.478354 18.304C0.44063 19.7638 0.792058 21.1756 1.31821 22.4075C1.85031 23.6453 2.54523 24.7292 3.29772 25.713C4.04823 26.6929 4.8722 27.5908 5.68227 28.4107C6.50028 29.2406 7.33418 30.0505 8.19389 30.8204C10.7115 33.0921 13.368 35.1259 16.0424 37.0576C16.1258 36.9056 16.1894 36.7717 16.2271 36.6637C15.8221 36.3477 15.4448 36.0358 15.1192 35.7318V35.7358Z" fill="#231F20"/>
<path d="M15.01 39.3353C14.2714 40.1652 13.1556 41.4071 13.1834 41.547C13.2429 41.859 11.8769 43.8508 11.0728 45.0006C11.0728 45.1026 10.8743 45.6105 10.8743 45.7825C13.5785 43.0129 15.2304 41.2631 17.7698 38.2974C17.194 37.8895 16.6182 37.4795 16.0424 37.0636C15.5361 38.0015 14.4084 39.5813 15.01 39.3373V39.3353Z" fill="#231F20"/>
<path d="M31.8569 12.2567C31.6802 11.2868 31.1858 10.1989 30.3539 9.45504C29.5418 8.71114 28.5947 8.33118 27.7033 8.14321C26.7939 7.95723 25.9421 7.98323 25.142 8.08921C23.5377 8.33318 22.2452 8.9791 21.2624 9.59103C20.2736 10.2109 19.5469 10.8129 19.0268 11.2548C18.9017 11.3648 18.7806 11.4768 18.6614 11.5888C17.5575 12.5907 16.5012 13.7245 15.4926 14.8704C14.7163 15.7603 14.0015 16.6541 13.3979 17.472L13.9618 17.86C14.0889 17.952 14.1802 18.008 14.3351 18.128L14.7759 18.4779C15.0459 18.7079 15.2683 18.9239 15.5085 19.1478L15.8877 19.5358C16.0585 19.3318 16.2193 19.1198 16.392 18.9179C17.1048 18.088 17.8335 17.2761 18.582 16.4822C19.3325 15.6923 20.0969 14.8924 20.8554 14.1985C20.8137 14.1405 20.6012 14.2384 20.8335 13.9805C21.596 13.1926 22.41 12.8566 23.2161 12.2847L23.2201 12.1507C23.911 11.8067 24.6436 11.5508 25.3505 11.4728C25.9878 11.3428 26.645 11.3168 27.1831 11.4468C27.737 11.5768 28.1401 11.8247 28.3565 12.1247C28.3783 12.0867 28.4061 12.0507 28.4637 12.1147C28.6861 12.3867 28.831 13.0366 28.7734 13.8845C28.7734 14.0085 28.7734 14.1365 28.7675 14.2624C28.7833 14.3644 28.8191 14.3944 28.8429 14.4144C28.7913 14.8224 28.7178 15.2023 28.6364 15.5423C28.281 17.842 27.3518 20.1837 26.1705 22.4654C25.1916 24.3452 24.0063 26.201 22.7058 28.0727C22.9838 28.4587 23.2677 28.8426 23.5437 29.2306C24.6853 30.9564 23.5238 29.8725 22.4259 28.7806C22.7932 29.1466 22.6006 29.2866 22.9659 29.6545C22.8547 29.7365 22.4974 29.5645 21.9772 29.1106C21.9355 29.1686 21.8977 29.2266 21.856 29.2846C21.6932 29.5325 21.5265 29.7765 21.3597 30.0225C21.3895 30.0625 21.4173 30.1025 21.447 30.1425C21.4232 30.1105 21.3875 30.0605 21.3597 30.0225C20.8593 30.7664 20.353 31.5043 19.8289 32.1922C18.7766 33.534 17.3113 35.1458 16.2153 36.3977C16.2928 36.4097 16.2848 36.5117 16.2312 36.6616C16.7852 37.0936 17.3967 37.5355 18.034 37.9875C18.1035 37.9055 18.173 37.8255 18.2425 37.7455C20.9785 34.5059 23.7065 31.2563 26.3134 27.6568C26.7105 27.0108 27.7688 25.495 28.9581 23.3293C29.5458 22.2414 30.1632 20.9996 30.7033 19.6018C31.2414 18.2059 31.698 16.6481 31.9025 14.9943C32.0058 14.1485 32.0455 13.2346 31.8628 12.2527L31.8569 12.2567Z" fill="#231F20"/>
<path d="M7.81275 11.5668C8.16021 11.9627 8.56723 12.3087 9.00801 12.5867C8.87498 12.3727 8.78365 12.1607 8.7082 11.9747C9.01396 12.3807 9.4051 12.7186 9.59769 12.7826C10.5686 13.2666 10.1338 12.7246 9.99677 12.2987C9.86573 12.0387 10.2311 12.1107 10.0067 11.7708C10.2112 11.9527 10.3184 12.0407 10.5448 12.1947C10.5865 12.1527 10.4038 12.0547 10.2509 11.9427C10.1 11.8248 9.97096 11.7128 10.1 11.7028C10.2708 11.9067 10.5408 12.0267 10.7651 12.1527C10.7552 12.0707 10.5785 11.9347 10.4157 11.8048C10.2628 11.6588 10.1219 11.5288 10.1854 11.4808C10.2489 11.5108 10.3522 11.6688 10.4693 11.7968C10.5924 11.9147 10.7155 12.0227 10.781 11.9467C10.8029 11.9267 10.6023 11.7748 10.5011 11.7048C10.8307 11.9047 11.1126 11.9787 11.2377 11.9387C11.3648 11.8967 11.3231 11.8068 11.1047 11.5708C11.2794 11.6888 11.5296 11.8468 11.74 11.8768V11.8728C11.6388 11.8328 11.474 11.7628 11.3866 11.7128C11.4958 11.7708 11.611 11.7908 11.7241 11.8288L11.6824 11.7368C11.605 11.6888 11.5276 11.6608 11.4462 11.6168C11.5157 11.6548 11.5891 11.6708 11.6606 11.6928C11.6169 11.6188 11.5752 11.5448 11.5315 11.4708C11.327 11.2748 11.2099 10.9809 11.1007 10.9009C10.2132 10.169 9.61556 8.74514 9.61556 7.4853C9.55004 7.4853 9.49048 7.55929 9.45474 7.45131C9.39319 7.04536 9.61755 6.7054 9.59968 6.33345L9.49842 6.29545C9.57982 6.00749 9.68505 5.72352 9.81014 5.49155C9.92926 5.01361 10.098 4.68965 10.3303 4.41968C10.2986 4.39569 10.2727 4.37169 10.2886 4.3337C10.3919 4.20771 10.5865 4.10172 10.8307 4.01174L10.928 3.94574C10.9478 3.90975 10.9419 3.86975 10.9399 3.84576C11.063 3.80976 11.1761 3.78776 11.2794 3.76377C11.6229 3.62978 12.0259 3.5058 12.3932 3.45581C12.7605 3.40981 13.106 3.41381 13.4316 3.5058C14.0769 3.66578 14.7023 4.2997 15.153 5.24158C15.3833 5.60954 15.6137 6.04748 15.7328 6.44543C15.8102 6.75139 15.838 7.11335 15.8122 7.4613C15.7864 7.80926 15.701 8.13722 15.6097 8.41518C15.7983 8.42518 15.834 8.81114 15.7904 9.19509C15.7566 9.57704 15.6593 9.95499 15.9115 9.921C15.6434 10.3429 15.1074 10.8409 15.1332 10.9449C15.1848 11.1128 15.1947 11.3388 15.0359 11.6508C14.879 11.9567 14.5356 12.3547 13.9022 12.7126C13.388 12.9746 12.5838 13.0066 12.423 13.1006C12.1589 13.2646 13.114 13.1986 12.8539 13.3606C13.8208 13.1746 14.891 12.7726 15.8102 11.9987C16.7434 11.2108 17.4185 10.145 17.75 8.93312C17.9168 8.3312 17.9823 7.67728 17.9605 7.08335C17.9386 6.48943 17.8394 5.9135 17.7024 5.40556C17.4502 4.46368 17.1147 3.45581 16.4376 2.46993C16.3026 2.31795 16.0783 2.04798 15.7268 1.72602C15.3655 1.41406 14.8632 1.0621 14.2397 0.828134C13.6163 0.588164 12.9075 0.508174 12.2225 0.54017C11.5355 0.582164 10.8704 0.680152 10.1397 0.956118C9.42098 1.22208 8.67246 1.68403 8.09866 2.32995C7.52089 2.97187 7.16152 3.72977 6.94709 4.39569C6.72869 5.0696 6.64331 5.66553 6.58772 6.16347C6.53014 6.6634 6.52021 7.06335 6.5083 7.35732C6.5083 7.43131 6.5083 7.4933 6.51227 7.57729C6.50632 8.3032 6.63339 9.0891 6.87164 9.79501C7.10791 10.5029 7.45934 11.1248 7.8207 11.5688L7.81275 11.5668Z" fill="#231F20"/>
<path d="M45.4196 41.583C42.4572 41.583 41.5399 40.5892 41.5399 37.6055V30.7544C41.5399 28.1267 40.6584 26.9549 38.4009 26.9549C36.4611 26.9549 35.4029 28.2687 35.4029 30.6484V41.583H33.1454C30.2883 41.583 28.7019 40.4472 28.7019 37.6055V30.7544C28.7019 25.1451 32.4048 21.4875 38.5756 21.4875C45.4533 21.4875 48.2389 25.1451 48.2389 30.9324V41.583H45.4176H45.4196Z" fill="#231F20"/>
<path d="M83.5982 41.5831H81.7755C79.524 41.5831 78.4518 40.5332 77.3082 38.7835C74.6635 34.76 71.9117 27.6908 71.054 22.0555H74.5921C76.8078 22.0555 78.2016 23.5953 78.4518 24.8192C79.0594 27.8988 80.8106 32.4482 81.704 34.094C82.9549 31.8183 84.706 26.359 85.4208 22.0555H88.673C90.3885 22.0555 91.4249 23.0714 91.4249 24.6812C91.4249 26.081 90.9603 27.4809 90.4957 28.8107C89.2091 32.4842 85.9569 39.0294 83.5982 41.5831Z" fill="#231F20"/>
<path d="M61.1087 21.4875C54.233 21.4875 50.3892 25.571 50.3892 32.5641V42.7369C50.3892 46.0385 51.8008 47.4583 54.4792 47.4583H56.9134V39.4853C57.7592 40.9411 59.2761 42.1469 61.885 42.1469C67.1763 42.1469 71.0539 38.0634 71.0539 31.3903C71.0539 25.355 66.7871 21.4835 61.1087 21.4835V21.4875ZM61.3132 36.6636C58.9148 36.6636 57.6977 34.8898 57.6977 31.3943C57.6977 28.4507 58.7877 26.9568 60.936 26.9568C63.3344 26.9568 64.5515 28.7166 64.5515 32.1882C64.5515 34.8638 63.249 36.6636 61.3112 36.6636H61.3132Z" fill="#231F20"/>
</g>
<defs>
<clipPath id="clip0_6021_8488">
<rect width="91" height="48" fill="white" transform="translate(0.422852 0.53418)"/>
</clipPath>
</defs>
</svg>
