<svg width="64" height="29" viewBox="0 0 64 29" fill="none" xmlns="http://www.w3.org/2000/svg">
<g opacity="0.75" clip-path="url(#clip0_6021_8464)">
<path d="M11.2818 11.4962C8.01171 10.5875 7.43944 10.1216 7.43944 8.37356C7.43944 6.19425 8.11292 5.83231 9.51829 5.83231C10.4526 5.83231 11.8696 5.85541 12.4341 5.92857L12.4692 9.59414C12.4692 9.74815 12.5937 9.87136 12.7495 9.87136H18.6707C18.8264 9.87136 18.951 9.7443 18.951 9.59414V1.54298C18.951 1.41977 18.8692 1.30811 18.7485 1.27345C17.3938 0.884565 12.9869 0.53418 9.59225 0.53418C2.45254 0.53418 0.276367 2.62879 0.276367 8.62769C0.276367 14.6266 1.84913 15.7239 8.57619 17.7223C12.0215 18.7272 12.4964 19.1354 12.4964 21.0644C12.4964 23.5941 12.0993 23.5094 9.63118 23.5094C8.92656 23.5094 7.75866 23.417 7.13968 23.3439L7.10075 19.7245C7.10075 19.5705 6.97618 19.4434 6.82046 19.4434H1.04718C0.891457 19.4434 0.766882 19.5705 0.766882 19.7245V27.8026C0.766882 27.9374 0.864206 28.0529 1.00046 28.076C2.06324 28.2608 5.40731 28.5303 9.55722 28.5303C17.5767 28.5303 19.7724 27.1365 19.7724 20.587C19.7724 14.6959 17.9621 13.356 11.2818 11.4924" fill="#231F20"/>
<path d="M58.667 10.6491L50.2815 14.9731C50.2543 14.9885 50.227 14.9923 50.1959 14.9923C50.1609 14.9923 50.1297 14.9846 50.0986 14.9654C50.0441 14.9307 50.009 14.8691 50.009 14.8036V5.70904C50.009 5.64358 50.0441 5.57812 50.1025 5.54732C50.1609 5.51267 50.2309 5.51267 50.2893 5.54732L58.6748 10.3218C58.7332 10.3565 58.7721 10.4219 58.7682 10.4874C58.7682 10.5567 58.7293 10.6183 58.667 10.6529M61.4777 2.53247C60.3254 1.24259 58.593 0.715088 55.4942 0.715088H43.2041C43.0484 0.715088 42.9238 0.842151 42.9238 0.996166V6.3559C42.9238 6.51377 43.0484 6.64083 43.2041 6.64083H44.3603L44.3409 22.7085H43.2041C43.0484 22.7085 42.9238 22.8356 42.9238 22.9896V28.203C42.9238 28.357 43.0484 28.4841 43.2041 28.4841H54.1083C54.2641 28.4841 54.3886 28.357 54.3886 28.203V23.1782C54.3886 23.0204 54.2641 22.8972 54.1083 22.8972H51.6168V19.8785H55.4203C58.4763 19.8785 60.2748 19.3201 61.4427 18.0072C62.7118 16.5787 63.2763 14.1876 63.2763 10.2486C63.2763 6.3097 62.7235 3.93401 61.4816 2.54402" fill="#231F20"/>
<path d="M40.8138 13.9335H39.7043L31.7821 13.9181C31.6264 13.9181 31.5018 14.0413 31.5018 14.1953V19.1507C31.5018 19.3048 31.6264 19.428 31.7821 19.428L33.6702 19.4357V23.0396C33.059 23.1128 32.0468 23.1436 31.4045 23.1436C29.2322 23.1436 28.5743 23.1436 28.5743 16.4208V12.994C28.5743 6.19805 29.1582 6.19804 31.3266 6.19804C32.1247 6.19804 33.1057 6.2096 33.6235 6.25965L33.6313 9.59408C33.6313 9.7481 33.7597 9.87131 33.9154 9.87131H39.8756C40.0313 9.87131 40.1559 9.7481 40.1559 9.59408V1.50828C40.1559 1.37736 40.0625 1.26185 39.934 1.2349C38.9491 1.02313 34.3164 0.572632 31.4746 0.572632C23.0424 0.572632 21.2205 3.06383 21.2205 14.6034C21.2205 20.9181 21.7888 24.1293 23.2448 26.0622C24.8565 28.203 27.5777 28.5341 31.4162 28.5341C34.2697 28.5341 38.1588 28.3262 39.9301 27.9681C40.0625 27.9412 40.1559 27.8257 40.1559 27.6947V19.4357H40.806C40.9617 19.4357 41.0902 19.3086 41.0902 19.1546V14.2068C41.0902 14.0528 40.9617 13.9296 40.806 13.9296" fill="#231F20"/>
</g>
<defs>
<clipPath id="clip0_6021_8464">
<rect width="63" height="28" fill="white" transform="translate(0.276367 0.53418)"/>
</clipPath>
</defs>
</svg>
