<svg width="24" height="29" viewBox="0 0 24 29" fill="none" xmlns="http://www.w3.org/2000/svg">
<g clip-path="url(#clip0_8669_3128)">
<path d="M18.3698 17.33C17.7598 17.33 17.1798 17.45 16.6398 17.63L17.7598 19.4C17.9598 19.36 18.1598 19.33 18.3798 19.33C20.2998 19.33 21.8598 20.89 21.8598 22.81C21.8598 24.73 20.2998 26.29 18.3798 26.29C16.7798 26.29 15.4398 25.19 15.0398 23.72H18.3798C18.8798 23.72 19.2898 23.31 19.2898 22.81C19.2898 22.59 19.2098 22.37 19.0798 22.19L18.2698 20.79C18.2698 21.34 18.0698 21.89 17.6498 22.3C17.2598 22.69 16.7398 22.9 16.1798 22.9C15.6898 22.9 15.2098 22.73 14.8298 22.41L10.5798 18.83C10.0398 18.37 9.70977 17.7 9.67977 16.99C9.65977 16.56 9.76977 16.13 9.95977 15.75H8.63977L7.69977 16.69C7.27977 17.11 6.70977 17.35 6.10977 17.35C6.04977 17.35 5.99977 17.34 5.94977 17.33V17.35C5.78977 17.34 5.63977 17.33 5.48977 17.33C2.45977 17.33 0.00976562 19.78 0.00976562 22.81C0.00976562 25.84 2.45977 28.29 5.48977 28.29C8.51977 28.29 10.9698 25.84 10.9698 22.81C10.9698 22.02 10.7998 21.26 10.4898 20.58L12.9098 23C13.0098 25.94 15.4198 28.29 18.3798 28.29C21.3398 28.29 23.8598 25.84 23.8598 22.81C23.8598 19.78 21.4098 17.33 18.3798 17.33H18.3698ZM7.68977 17.79L7.70977 17.81C7.70977 17.81 7.69977 17.81 7.68977 17.81V17.79ZM5.47977 26.29C3.55977 26.29 1.99977 24.73 1.99977 22.81C1.99977 20.89 3.53977 19.36 5.42977 19.34L4.59977 22.59C4.47977 23.07 4.76977 23.57 5.24977 23.69C5.72977 23.81 6.22977 23.52 6.34977 23.04L7.17977 19.8C8.23977 20.4 8.95977 21.52 8.95977 22.82C8.95977 24.74 7.39977 26.3 5.47977 26.3V26.29Z" fill="#FF6430"/>
<path d="M7.7993 0C7.7993 0 4.2793 4.98 4.2793 12.41H14.9793C12.4993 6.21 16.8093 0 16.8093 0H7.7993Z" fill="black"/>
<path d="M6.94922 9.58006C6.94922 9.58006 11.7992 10.2701 12.3292 6.56006" stroke="white" stroke-miterlimit="10" stroke-linecap="round"/>
<path d="M7.39844 4.86011V6.61011" stroke="white" stroke-miterlimit="10" stroke-linecap="round"/>
<path d="M10.5 4.86011V6.61011" stroke="white" stroke-miterlimit="10" stroke-linecap="round"/>
<path d="M6.02906 13.4102L5.21906 14.2202C4.72906 14.7102 4.72906 15.5002 5.21906 15.9902C5.70906 16.4802 6.49906 16.4802 6.98906 15.9902L9.55906 13.4202H6.02906V13.4102Z" fill="black"/>
<path d="M18.4882 9.7501L15.8482 7.1101L15.3382 6.6001C15.0882 8.2901 15.1482 10.1701 15.8982 12.0301L16.4482 13.4001H13.4982L12.4782 14.4201L11.1082 15.7901C10.4682 16.4301 10.5082 17.4801 11.2082 18.0601L15.4582 21.6401C15.8882 22.0001 16.5282 21.9801 16.9282 21.5801C17.2982 21.2201 17.3582 20.6501 17.0882 20.2201L15.0382 16.9701L18.4882 13.5201C19.5382 12.4701 19.5382 10.7801 18.4882 9.7301V9.7501Z" fill="black"/>
</g>
</svg>
