<svg width="25" height="39" viewBox="0 0 25 39" fill="none" xmlns="http://www.w3.org/2000/svg">
<mask id="mask0_9107_1916" style="mask-type:luminance" maskUnits="userSpaceOnUse" x="0" y="10" width="24" height="29">
<path d="M23.85 10.2993H0V38.5893H23.85V10.2993Z" fill="white"/>
</mask>
<g mask="url(#mask0_9107_1916)">
<path d="M18.37 27.6293C17.76 27.6293 17.18 27.7493 16.64 27.9293L17.76 29.6993C17.96 29.6593 18.16 29.6293 18.38 29.6293C20.3 29.6293 21.86 31.1893 21.86 33.1093C21.86 35.0293 20.3 36.5893 18.38 36.5893C16.78 36.5893 15.44 35.4893 15.04 34.0193H18.38C18.88 34.0193 19.29 33.6093 19.29 33.1093C19.29 32.8893 19.21 32.6693 19.08 32.4893L18.27 31.0893C18.27 31.6393 18.07 32.1893 17.65 32.5993C17.26 32.9893 16.74 33.1993 16.18 33.1993C15.69 33.1993 15.21 33.0293 14.83 32.7093L10.58 29.1293C10.04 28.6693 9.71 27.9993 9.68 27.2893C9.66 26.8593 9.77 26.4293 9.96 26.0493H8.64L7.7 26.9893C7.28 27.4093 6.71 27.6493 6.11 27.6493C6.05 27.6493 6 27.6393 5.95 27.6293V27.6493C5.79 27.6393 5.64 27.6293 5.49 27.6293C2.46 27.6293 0.0100021 30.0793 0.0100021 33.1093C0.0100021 36.1393 2.46 38.5893 5.49 38.5893C8.52 38.5893 10.97 36.1393 10.97 33.1093C10.97 32.3193 10.8 31.5593 10.49 30.8793L12.91 33.2993C13.01 36.2393 15.42 38.5893 18.38 38.5893C21.34 38.5893 23.86 36.1393 23.86 33.1093C23.86 30.0793 21.41 27.6293 18.38 27.6293H18.37ZM7.69 28.0893L7.71 28.1093C7.71 28.1093 7.7 28.1093 7.69 28.1093V28.0893ZM5.48 36.5893C3.56 36.5893 2 35.0293 2 33.1093C2 31.1893 3.54 29.6593 5.43 29.6393L4.6 32.8893C4.48 33.3693 4.77 33.8693 5.25 33.9893C5.73 34.1093 6.23 33.8193 6.35 33.3393L7.18 30.0993C8.24 30.6993 8.96 31.8193 8.96 33.1193C8.96 35.0393 7.4 36.5993 5.48 36.5993V36.5893Z" fill="#FF6430"/>
<path d="M7.8 10.2993C7.8 10.2993 4.28 15.2793 4.28 22.7093H14.98C12.5 16.5093 16.81 10.2993 16.81 10.2993H7.8Z" fill="black"/>
<path d="M6.95 19.8799C6.95 19.8799 11.8 20.5699 12.33 16.8599" stroke="white" stroke-miterlimit="10" stroke-linecap="round"/>
<path d="M7.4 15.1597V16.9097" stroke="white" stroke-miterlimit="10" stroke-linecap="round"/>
<path d="M10.5 15.1597V16.9097" stroke="white" stroke-miterlimit="10" stroke-linecap="round"/>
<path d="M6.03 23.7085L5.22 24.5185C4.73 25.0085 4.73 25.7985 5.22 26.2885C5.71 26.7785 6.5 26.7785 6.99 26.2885L9.56 23.7185H6.03V23.7085Z" fill="black"/>
<path d="M18.49 20.0489L15.85 17.4089L15.34 16.8989C15.09 18.5889 15.15 20.4689 15.9 22.3289L16.45 23.6989H13.5L12.48 24.7189L11.11 26.0889C10.47 26.7289 10.51 27.7789 11.21 28.3589L15.46 31.9389C15.89 32.2989 16.53 32.2789 16.93 31.8789C17.3 31.5189 17.36 30.9489 17.09 30.5189L15.04 27.2689L18.49 23.8189C19.54 22.7689 19.54 21.0789 18.49 20.0289V20.0489Z" fill="black"/>
</g>
<path d="M16.0873 8.99785C15.7227 8.88389 13.5572 8.24559 12.1897 8.04057C10.8221 7.83554 9.4544 7.69838 7.4032 7.49341C6.3146 7.38463 5.4887 7.42507 4.8734 8.04057C4.4279 8.48635 4.3264 8.85186 4.3264 9.88663C4.3264 10.502 4.5316 10.9806 5.0786 11.2541C6.1183 11.774 6.1726 11.8011 7.2667 12.143C8.3291 12.475 11.932 13.1171 12.5317 13.2371C13.2155 13.3738 15.7453 13.7157 16.3607 13.7841C16.9761 13.8525 18.7343 13.9531 19.0958 12.4165C19.3693 11.2541 18.8907 10.7071 18.3438 10.1602C17.9978 9.81433 16.7483 9.20298 16.0873 8.99785Z" fill="black" stroke="white"/>
<path d="M12.5999 8.10886C16.1031 8.64774 18.0017 9.88662 18.0017 9.88662C18.0017 9.88662 18.0872 7.60892 17.7966 6.19427C17.6571 5.5152 17.318 4.55321 17.318 4.48484C17.318 4.41646 17.7966 5.85239 17.7966 5.85239C18.4804 5.92076 19.0757 6.56575 19.5744 7.21996C19.8496 7.58098 19.6222 7.96599 20.0531 8.10884C20.3078 8.19329 20.4926 8.15158 20.7368 8.04046C21.1014 7.87461 20.8999 7.53918 21.2839 7.42509C21.6644 7.31202 21.9731 7.77251 22.3095 7.56182C22.6969 7.31923 22.2625 6.84759 22.1728 6.3994C21.9936 5.50456 21.489 4.55321 21.3522 4.21133C21.2155 3.86944 20.6819 2.82401 19.9847 2.16C19.1884 1.40157 18.5756 1.11103 17.5231 0.792449C16.6481 0.52762 16.1107 0.462076 15.1983 0.518941C14.2351 0.578968 13.6972 0.76638 12.805 1.13434C12.1313 1.41225 11.77 1.61828 11.164 2.02325C10.5016 2.46587 10.1699 2.77483 9.5913 3.32242C8.6973 4.16855 8.2407 4.70358 7.54 5.71565C7.0968 6.35575 6.4459 7.42509 6.4459 7.42509C6.4459 7.42509 9.0967 7.56999 12.5999 8.10886Z" fill="#0D9CBC" stroke="white"/>
<path d="M23.6087 8.45101C23.4719 8.31427 23.5685 7.76432 23.2668 7.56212C22.9275 7.33472 22.5085 7.68967 22.1044 7.63039C21.6422 7.56261 21.6328 7.21511 21.2155 7.42491C20.8832 7.59196 21.1452 7.7183 20.8736 7.97237C20.5896 8.23797 20.0998 7.97146 19.9163 8.31426C19.7482 8.62837 20.1537 8.84838 20.1214 9.20318C20.0868 9.58394 19.6256 9.71944 19.7112 10.0921C19.7916 10.4422 20.1884 10.4135 20.3949 10.7075C20.5945 10.9915 20.436 11.3547 20.7368 11.528C21.0681 11.7188 21.3192 11.248 21.6941 11.3229C22.0355 11.391 22.0991 11.8282 22.4462 11.8015C22.8228 11.7725 22.7882 11.3228 23.0617 11.0493C23.2914 10.8196 23.6551 11.0765 23.8822 10.8442C24.1832 10.5364 23.7294 10.3092 23.8138 9.88692C23.8841 9.53566 24.3587 9.48686 24.2925 9.13479C24.226 8.78174 23.7454 8.58775 23.6087 8.45101Z" fill="black" stroke="white"/>
</svg>
