<svg width="24" height="29" viewBox="0 0 24 29" fill="none" xmlns="http://www.w3.org/2000/svg">
<path d="M18.36 17.33C17.75 17.33 17.17 17.45 16.63 17.63L17.75 19.4C17.95 19.36 18.15 19.33 18.37 19.33C20.29 19.33 21.85 20.89 21.85 22.81C21.85 24.73 20.29 26.29 18.37 26.29C16.77 26.29 15.43 25.19 15.03 23.72H18.37C18.87 23.72 19.28 23.31 19.28 22.81C19.28 22.59 19.2 22.37 19.07 22.19L18.26 20.79C18.26 21.34 18.06 21.89 17.64 22.3C17.25 22.69 16.73 22.9 16.17 22.9C15.68 22.9 15.2 22.73 14.82 22.41L10.57 18.83C10.03 18.37 9.7 17.7 9.67 16.99C9.65 16.56 9.76 16.13 9.95 15.75H8.63L7.68999 16.69C7.26999 17.11 6.7 17.35 6.1 17.35C6.04 17.35 5.98999 17.34 5.93999 17.33V17.35C5.77999 17.34 5.62999 17.33 5.47999 17.33C2.44999 17.33 0 19.78 0 22.81C0 25.84 2.44999 28.29 5.47999 28.29C8.50999 28.29 10.96 25.84 10.96 22.81C10.96 22.02 10.79 21.26 10.48 20.58L12.9 23C13 25.94 15.41 28.29 18.37 28.29C21.33 28.29 23.85 25.84 23.85 22.81C23.85 19.78 21.4 17.33 18.37 17.33H18.36ZM7.68 17.79L7.7 17.81C7.7 17.81 7.69 17.81 7.68 17.81V17.79ZM5.47 26.29C3.55 26.29 1.99001 24.73 1.99001 22.81C1.99001 20.89 3.52999 19.36 5.41999 19.34L4.58999 22.59C4.46999 23.07 4.76 23.57 5.24 23.69C5.71999 23.81 6.21999 23.52 6.33999 23.04L7.16999 19.8C8.22999 20.4 8.95 21.52 8.95 22.82C8.95 24.74 7.38999 26.3 5.47 26.3V26.29Z" fill="#FF6430"/>
<path d="M7.78953 0C7.78953 0 4.26953 4.98 4.26953 12.41H14.9695C12.4895 6.21 16.7995 0 16.7995 0H7.78953Z" fill="black"/>
<path d="M6.93945 9.58006C6.93945 9.58006 11.7894 10.27 12.3194 6.56006" stroke="white" stroke-miterlimit="10" stroke-linecap="round"/>
<path d="M7.38867 4.86011V6.61011" stroke="white" stroke-miterlimit="10" stroke-linecap="round"/>
<path d="M10.4902 4.86011V6.61011" stroke="white" stroke-miterlimit="10" stroke-linecap="round"/>
<path d="M6.0193 13.4102L5.2093 14.2202C4.7193 14.7102 4.7193 15.5002 5.2093 15.9902C5.6993 16.4802 6.4893 16.4802 6.9793 15.9902L9.5493 13.4202H6.0193V13.4102Z" fill="black"/>
<path d="M18.4784 9.75012L15.8384 7.1101L15.3284 6.6001C15.0784 8.2901 15.1384 10.1701 15.8884 12.0301L16.4384 13.4001H13.4884L12.4684 14.4201L11.0984 15.7901C10.4584 16.4301 10.4984 17.4801 11.1984 18.0601L15.4484 21.6401C15.8784 22.0001 16.5184 21.9801 16.9184 21.5801C17.2884 21.2201 17.3484 20.6501 17.0784 20.2201L15.0284 16.9701L18.4784 13.5201C19.5284 12.4701 19.5284 10.7801 18.4784 9.73012V9.75012Z" fill="black"/>
</svg>
