<svg width="24" height="29" viewBox="0 0 24 29" fill="none" xmlns="http://www.w3.org/2000/svg">
<g clip-path="url(#clip0_8669_3128)">
<path d="M18.4069 17.685C17.7969 17.685 17.2169 17.805 16.6769 17.985L17.7969 19.755C17.9969 19.715 18.1969 19.685 18.4169 19.685C20.3369 19.685 21.8969 21.245 21.8969 23.165C21.8969 25.085 20.3369 26.645 18.4169 26.645C16.8169 26.645 15.4769 25.545 15.0769 24.075H18.4169C18.9169 24.075 19.3269 23.665 19.3269 23.165C19.3269 22.945 19.2469 22.725 19.1169 22.545L18.3069 21.145C18.3069 21.695 18.1069 22.245 17.6869 22.655C17.2969 23.045 16.7769 23.255 16.2169 23.255C15.7269 23.255 15.2469 23.085 14.8669 22.765L10.6169 19.185C10.0769 18.725 9.74688 18.055 9.71688 17.345C9.69688 16.915 9.80687 16.485 9.99687 16.105H8.67688L7.73687 17.045C7.31687 17.465 6.74687 17.705 6.14687 17.705C6.08687 17.705 6.03687 17.695 5.98687 17.685V17.705C5.82687 17.695 5.67687 17.685 5.52687 17.685C2.49687 17.685 0.046875 20.135 0.046875 23.165C0.046875 26.195 2.49687 28.645 5.52687 28.645C8.55687 28.645 11.0069 26.195 11.0069 23.165C11.0069 22.375 10.8369 21.615 10.5269 20.935L12.9469 23.355C13.0469 26.295 15.4569 28.645 18.4169 28.645C21.3769 28.645 23.8969 26.195 23.8969 23.165C23.8969 20.135 21.4469 17.685 18.4169 17.685H18.4069ZM7.72687 18.145L7.74687 18.165C7.74687 18.165 7.73687 18.165 7.72687 18.165V18.145ZM5.51687 26.645C3.59687 26.645 2.03688 25.085 2.03688 23.165C2.03688 21.245 3.57687 19.715 5.46687 19.695L4.63687 22.945C4.51687 23.425 4.80687 23.925 5.28687 24.045C5.76687 24.165 6.26687 23.875 6.38687 23.395L7.21687 20.155C8.27687 20.755 8.99687 21.875 8.99687 23.175C8.99687 25.095 7.43687 26.655 5.51687 26.655V26.645Z" fill="#009BCF"/>
<path d="M7.83641 0.35498C7.83641 0.35498 4.31641 5.33498 4.31641 12.765H15.0164C12.5364 6.56498 16.8464 0.35498 16.8464 0.35498H7.83641Z" fill="white"/>
<path d="M6.98633 9.93504C6.98633 9.93504 11.8363 10.625 12.3663 6.91504" stroke="black" stroke-miterlimit="10" stroke-linecap="round"/>
<path d="M7.43555 5.21509V6.96509" stroke="black" stroke-miterlimit="10" stroke-linecap="round"/>
<path d="M10.5371 5.21509V6.96509" stroke="black" stroke-miterlimit="10" stroke-linecap="round"/>
<path d="M6.06617 13.7651L5.25617 14.5751C4.76617 15.0651 4.76617 15.8551 5.25617 16.3451C5.74617 16.8351 6.53617 16.8351 7.02617 16.3451L9.59617 13.7751H6.06617V13.7651Z" fill="white"/>
<path d="M18.5253 10.1051L15.8853 7.46508L15.3753 6.95508C15.1253 8.64508 15.1853 10.5251 15.9353 12.3851L16.4853 13.7551H13.5353L12.5153 14.7751L11.1453 16.1451C10.5053 16.7851 10.5453 17.8351 11.2453 18.4151L15.4953 21.9951C15.9253 22.3551 16.5653 22.3351 16.9653 21.9351C17.3353 21.5751 17.3953 21.0051 17.1253 20.5751L15.0753 17.3251L18.5253 13.8751C19.5753 12.8251 19.5753 11.1351 18.5253 10.0851V10.1051Z" fill="white"/>
</g>
</svg>
