<svg width="25" height="29" viewBox="0 0 25 29" fill="none" xmlns="http://www.w3.org/2000/svg">
<g clip-path="url(#clip0_8672_3129)">
<path d="M18.8698 17.685C18.2598 17.685 17.6798 17.805 17.1398 17.985L18.2598 19.755C18.4598 19.715 18.6598 19.685 18.8798 19.685C20.7998 19.685 22.3598 21.245 22.3598 23.165C22.3598 25.085 20.7998 26.645 18.8798 26.645C17.2798 26.645 15.9398 25.545 15.5398 24.075H18.8798C19.3798 24.075 19.7898 23.665 19.7898 23.165C19.7898 22.945 19.7098 22.725 19.5798 22.545L18.7698 21.145C18.7698 21.695 18.5698 22.245 18.1498 22.655C17.7598 23.045 17.2398 23.255 16.6798 23.255C16.1898 23.255 15.7098 23.085 15.3298 22.765L11.0798 19.185C10.5398 18.725 10.2098 18.055 10.1798 17.345C10.1598 16.915 10.2698 16.485 10.4598 16.105H9.13977L8.19977 17.045C7.77977 17.465 7.20977 17.705 6.60977 17.705C6.54977 17.705 6.49977 17.695 6.44977 17.685V17.705C6.28977 17.695 6.13977 17.685 5.98977 17.685C2.95977 17.685 0.509766 20.135 0.509766 23.165C0.509766 26.195 2.95977 28.645 5.98977 28.645C9.01977 28.645 11.4698 26.195 11.4698 23.165C11.4698 22.375 11.2998 21.615 10.9898 20.935L13.4098 23.355C13.5098 26.295 15.9198 28.645 18.8798 28.645C21.8398 28.645 24.3598 26.195 24.3598 23.165C24.3598 20.135 21.9098 17.685 18.8798 17.685H18.8698ZM8.18977 18.145L8.20977 18.165C8.20977 18.165 8.19977 18.165 8.18977 18.165V18.145ZM5.97977 26.645C4.05977 26.645 2.49977 25.085 2.49977 23.165C2.49977 21.245 4.03977 19.715 5.92977 19.695L5.09977 22.945C4.97977 23.425 5.26977 23.925 5.74977 24.045C6.22977 24.165 6.72977 23.875 6.84977 23.395L7.67977 20.155C8.73977 20.755 9.45977 21.875 9.45977 23.175C9.45977 25.095 7.89977 26.655 5.97977 26.655V26.645Z" fill="black"/>
<path d="M8.2993 0.35498C8.2993 0.35498 4.7793 5.33498 4.7793 12.765H15.4793C12.9993 6.56498 17.3093 0.35498 17.3093 0.35498H8.2993Z" fill="black"/>
<path d="M7.44922 9.93504C7.44922 9.93504 12.2992 10.625 12.8292 6.91504" stroke="white" stroke-miterlimit="10" stroke-linecap="round"/>
<path d="M7.89844 5.21509V6.96509" stroke="white" stroke-miterlimit="10" stroke-linecap="round"/>
<path d="M11 5.21509V6.96509" stroke="white" stroke-miterlimit="10" stroke-linecap="round"/>
<path d="M6.52906 13.7651L5.71906 14.5751C5.22906 15.0651 5.22906 15.8551 5.71906 16.3451C6.20906 16.8351 6.99906 16.8351 7.48906 16.3451L10.0591 13.7751H6.52906V13.7651Z" fill="black"/>
<path d="M18.9882 10.1051L16.3482 7.46508L15.8382 6.95508C15.5882 8.64508 15.6482 10.5251 16.3982 12.3851L16.9482 13.7551H13.9982L12.9782 14.7751L11.6082 16.1451C10.9682 16.7851 11.0082 17.8351 11.7082 18.4151L15.9582 21.9951C16.3882 22.3551 17.0282 22.3351 17.4282 21.9351C17.7982 21.5751 17.8582 21.0051 17.5882 20.5751L15.5382 17.3251L18.9882 13.8751C20.0382 12.8251 20.0382 11.1351 18.9882 10.0851V10.1051Z" fill="black"/>
</g>
</svg>
