<svg width="697" height="77" viewBox="0 0 697 77" fill="none"
    xmlns="http://www.w3.org/2000/svg">
    <g clip-path="url(#clip0_8315_1482)">
        <path d="M468.02 0.44873H443.39V75.5987H468.02C488.74 75.5987 505.59 58.7387 505.59 38.0287C505.59 17.3187 488.74 0.44873 468.02 0.44873ZM468.02 62.4687H456.52V13.5787H468.02C481.5 13.5787 492.47 24.5487 492.47 38.0287C492.47 51.5087 481.5 62.4787 468.02 62.4787V62.4687Z" fill="white"/>
        <path d="M659.05 0.71875C638.28 0.71875 621.39 17.6087 621.39 38.3787C621.39 59.1488 638.28 76.0387 659.05 76.0387C679.82 76.0387 696.71 59.1488 696.71 38.3787C696.71 17.6087 679.81 0.71875 659.05 0.71875ZM659.05 62.7487C645.62 62.7487 634.69 51.8187 634.69 38.3887C634.69 24.9587 645.62 14.0287 659.05 14.0287C672.48 14.0287 683.41 24.9587 683.41 38.3887C683.41 51.8187 672.48 62.7487 659.05 62.7487Z" fill="white"/>
        <path d="M594.84 62.4587C591.51 61.8887 588.32 60.5887 585.53 58.6687C578.63 53.9387 575.05 46.6587 574.78 39.2687C574.79 38.8487 574.77 38.0187 574.77 38.0187C574.88 30.4787 578.44 22.9887 585.46 18.1387C588.26 16.1987 591.48 14.8887 594.84 14.3087C602.89 12.9187 610.73 15.4187 616.35 20.9587L623.5 9.71873C608.75 -2.80127 586.55 -2.10127 572.64 11.8087C565.43 19.0187 561.66 28.4487 561.66 37.9087C561.66 45.3787 558.9 50.3887 555.6 54.1387C551.48 48.6387 547.17 42.7987 543.32 37.3787C551.11 34.7387 556.65 27.1687 556.19 18.3987C555.64 8.24873 546.92 0.44873 536.75 0.44873H497.1L506.28 13.5787H537.01C539.98 13.5787 542.63 15.7087 543 18.6487C543.46 22.2087 540.68 25.2587 537.21 25.2587C522.76 25.2587 511.12 37.4887 512.1 52.1487C513.08 66.8087 525.85 76.5487 540.02 75.4987C544.54 75.1587 548.85 74.0187 552.78 72.2187C553.69 73.3987 554.55 74.5287 555.37 75.5987H571.98C570.31 73.4687 567.28 69.5687 563.59 64.7487C565.23 63.1287 566.73 61.3487 568.05 59.4487C569.37 61.3887 570.88 63.2387 572.6 64.9587C579.7 72.0587 589.13 75.9687 599.17 75.9687C608.17 75.9687 616.69 72.8287 623.47 67.0587L616.32 55.8187C610.7 61.3587 602.86 63.8587 594.81 62.4687L594.84 62.4587ZM537.23 62.4687C530.59 62.4687 525.19 57.0687 525.19 50.4287C525.19 46.5987 526.99 43.1887 529.78 40.9787C534.23 47.3987 539.52 54.6187 544.57 61.3487C542.25 62.0787 539.79 62.4687 537.24 62.4687H537.23Z" fill="white"/>
        <path d="M422.43 49.7587L388.58 0.44873H376.21V75.5987H389.34V26.2887L423.18 75.5987H435.56V0.46873H422.43V49.7587Z" fill="white"/>
        <path d="M131.37 75.5987H185.36V62.4687H144.49V44.5887H185.36V31.4587H144.49V13.5787H185.36V0.44873H131.37V75.5987Z" fill="white"/>
        <path d="M193.2 75.5987H206.32V44.5887H238.11V31.4587H206.32V13.5787H245.95V0.44873H193.2V75.5987Z" fill="white"/>
        <path d="M253.79 75.5987H266.91V44.5887H298.71V31.4587H266.91V13.5787H306.54V0.44873H253.79V75.5987Z" fill="white"/>
        <path d="M314.38 75.5987H368.37V62.4687H327.51V44.5887H368.37V31.4587H327.51V13.5787H368.37V0.44873H314.38V75.5987Z" fill="white"/>
        <path d="M123.63 25.6187C123.63 11.7387 112.33 0.44873 98.46 0.44873H67.09V75.5987H80.22V50.7887H94.75L109.64 75.5987H124.95L108.75 48.5987C117.52 44.6587 123.64 35.8487 123.64 25.6187H123.63ZM80.21 13.5787H98.45C105.09 13.5787 110.49 18.9787 110.49 25.6187C110.49 32.2587 105.09 37.6587 98.45 37.6587H80.2V13.5787H80.21Z" fill="white"/>
        <path d="M0 13.5787H22.58V75.5987H35.71V13.5787H59.25V0.44873H0V13.5787Z" fill="white"/>
    </g>
</svg>
