<svg width="374" height="41" viewBox="0 0 374 41" fill="none"
    xmlns="http://www.w3.org/2000/svg">
    <path d="M0 7.81703H12.1644V40.5478H19.2353V7.81703H31.9112V0.888916H0V7.81703Z" fill="black"/>
    <path d="M66.5871 14.1724C66.5871 6.84825 60.5061 0.888916 53.0297 0.888916H36.1313V40.5478H43.2023V27.4548H51.0275L59.0447 40.5478H67.2906L58.5639 26.2966C63.2885 24.2182 66.5859 19.566 66.5859 14.1713L66.5871 14.1724ZM43.2035 7.81703H53.0309C56.6076 7.81703 59.5173 10.668 59.5173 14.1724C59.5173 17.6769 56.6076 20.5267 53.0321 20.5278H43.2035V7.81703Z" fill="black"/>
    <path d="M70.7566 40.5478H99.8382V33.6196H77.8275V24.1824H99.8382V17.2543H77.8275V7.81703H99.8382V0.888916H70.7566V40.5478Z" fill="black"/>
    <path d="M169.332 40.5478H198.413V33.6196H176.402V24.1824H198.413V17.2543H176.402V7.81703H198.413V0.888916H169.332V40.5478Z" fill="black"/>
    <path d="M252.087 0.888916H238.822V40.5478H252.087C263.247 40.5478 272.326 31.6521 272.326 20.7183C272.326 9.78462 263.247 0.888916 252.087 0.888916ZM252.087 33.6196H245.893V7.81703H252.087C259.348 7.81703 265.255 13.6043 265.255 20.7183C265.255 27.8324 259.348 33.6196 252.087 33.6196Z" fill="black"/>
    <path d="M227.53 26.9132L209.301 0.888916H202.635V40.5478H209.705V14.5246L227.936 40.5478H234.601V0.898154H227.53V26.9132Z" fill="black"/>
    <path d="M104.06 40.5478H111.131V24.1824H128.254V17.2543H111.131V7.81703H132.474V0.888916H104.06V40.5478Z" fill="black"/>
    <path d="M136.696 40.5478H143.767V24.1824H160.89V17.2543H143.767V7.81703H165.11V0.888916H136.696V40.5478Z" fill="black"/>
    <path d="M353.715 1.03442C342.529 1.03442 333.429 9.95091 333.429 20.91C333.429 31.8692 342.529 40.7856 353.715 40.7856C364.9 40.7856 374 31.8692 374 20.91C374 9.95091 364.9 1.03442 353.715 1.03442ZM353.715 33.7651C346.48 33.7651 340.594 27.9986 340.594 20.91C340.594 13.8214 346.48 8.05491 353.715 8.05491C360.949 8.05491 366.835 13.8214 366.835 20.91C366.835 27.9986 360.949 33.7651 353.715 33.7651Z" fill="black"/>
    <path d="M321.197 33.8055C318.036 33.712 314.999 32.495 312.676 30.3923C309.982 27.9524 308.575 24.6847 308.454 21.3788C308.461 21.1594 308.467 20.94 308.467 20.7183H308.446C308.495 17.4783 309.777 14.2532 312.294 11.7868C314.781 9.35045 318.088 8.00871 321.606 8.00871C325.123 8.00871 328.364 9.32505 330.843 11.7176L334.691 5.78478C326.748 -0.822328 314.789 -0.455139 307.294 6.88866C303.245 10.8562 301.274 16.0996 301.38 21.3095C301.24 24.3371 300.03 27.0957 298.113 29.2307C295.892 26.3301 293.574 23.2483 291.497 20.3846C295.515 19.051 298.419 15.3329 298.443 10.9578C298.475 5.41875 293.739 0.888916 288.087 0.888916H268.94L273.886 7.81703H288.16C289.871 7.81703 291.321 9.12991 291.371 10.8054C291.422 12.4808 289.994 13.9807 288.227 13.9807C280.757 13.9807 274.678 19.932 274.67 27.2492C274.661 34.8055 281.163 40.7752 288.871 40.5374C291.624 40.4531 294.24 39.8261 296.612 38.7638C297.1 39.3885 297.567 39.9843 298.01 40.5478H306.958C306.061 39.4219 304.429 37.3654 302.441 34.8205C303.326 33.9637 304.131 33.0261 304.844 32.0227C305.552 33.0481 306.369 34.0226 307.295 34.9302C311.118 38.676 316.2 40.7383 321.606 40.7383C326.453 40.7383 331.041 39.079 334.693 36.0352L330.844 30.1013C328.269 32.5862 324.832 33.9106 321.198 33.8044L321.197 33.8055ZM288.227 33.6196C284.65 33.6196 281.741 30.7687 281.741 27.2642C281.741 25.2435 282.709 23.4422 284.213 22.2772C286.611 25.6627 289.461 29.4732 292.177 33.0261C290.929 33.4118 289.604 33.6196 288.227 33.6196Z" fill="black"/>
</svg>
