<svg width="83" height="40" viewBox="0 0 83 40" fill="none"
    xmlns="http://www.w3.org/2000/svg">
    <g clip-path="url(#clip0_6268_735)">
        <path d="M79.1677 29.3232C76.6038 31.8174 73.1822 33.1468 69.5635 33.0402C66.4164 32.9463 63.3926 31.7247 61.0798 29.6141C58.3975 27.1651 56.9964 23.8851 56.8756 20.5668C56.8826 20.3466 56.8885 20.1264 56.8885 19.9039H56.8685C56.9166 16.6517 58.1933 13.4145 60.6997 10.9389C63.1755 8.49334 66.4681 7.14656 69.9706 7.14656C73.4732 7.14656 76.7001 8.46784 79.1677 10.8693L83 4.9143C75.0913 -1.7176 63.1837 -1.34903 55.7209 6.02232C51.6892 10.0047 49.7273 15.2678 49.8329 20.4973C49.6932 23.5362 48.4882 26.3051 46.5802 28.4481C44.3684 25.5367 42.0603 22.4433 39.9928 19.5689C43.9929 18.2302 46.8841 14.4982 46.9088 10.1067C46.9404 4.54805 42.2234 0.0012207 36.597 0.0012207H0V6.95532H12.1118V39.8088H19.1521V6.95417H36.6697C38.3735 6.95417 39.8168 8.27197 39.8672 9.9537C39.92 11.7027 38.4955 13.141 36.7366 13.141C29.2985 13.141 23.2461 19.1146 23.2379 26.4593C23.2297 34.0439 29.7033 40.036 37.3773 39.7972C40.1183 39.7126 42.7233 39.0833 45.0853 38.017C45.5711 38.644 46.0358 39.2421 46.477 39.8077H55.3865C54.4936 38.6776 52.8684 36.6134 50.8889 34.0589C51.7701 33.199 52.5716 32.2578 53.2815 31.2506C53.9867 32.2799 54.7998 33.2581 55.7221 34.1691C59.5286 37.9289 64.5883 39.9989 69.9706 39.9989C74.7968 39.9989 79.3648 38.3334 83.0012 35.2782L79.1689 29.322L79.1677 29.3232ZM36.7366 32.8536C33.1754 32.8536 30.2783 29.992 30.2783 26.4743C30.2783 24.4461 31.2428 22.638 32.74 21.4685C35.1279 24.8668 37.9652 28.6915 40.6698 32.2578C39.4272 32.6449 38.1071 32.8536 36.7366 32.8536Z" fill="black"/>
    </g>
</svg>
