<svg width="153" height="76" viewBox="0 0 153 76" fill="none"
    xmlns="http://www.w3.org/2000/svg">
    <path d="M145.703 55.36C140.083 60.9 132.243 63.4 124.193 62.01C120.863 61.44 117.673 60.14 114.883 58.22C107.983 53.49 104.403 46.21 104.133 38.82C104.143 38.4 104.123 37.57 104.123 37.57C104.233 30.03 107.793 22.54 114.813 17.69C117.613 15.75 120.833 14.44 124.193 13.86C132.243 12.47 140.083 14.97 145.703 20.51L152.853 9.26999C138.103 -3.25001 115.903 -2.55001 101.993 11.36C94.7827 18.57 91.0127 28 91.0127 37.46C91.0127 44.93 88.2527 49.94 84.9527 53.69C80.8327 48.19 76.5227 42.35 72.6727 36.93C80.4627 34.29 86.0027 26.72 85.5427 17.95C85.0127 7.79999 76.2927 -0.0100098 66.1227 -0.0100098H0.222656V13.12H22.8027V75.14H35.9327V13.13H59.4627H66.3727C69.3427 13.13 71.9927 15.26 72.3627 18.2C72.8227 21.76 70.0427 24.81 66.5727 24.81C52.1227 24.81 40.4827 37.04 41.4627 51.7C42.4127 65.87 55.2127 76.1 69.3827 75.05C73.9027 74.71 78.2127 73.57 82.1427 71.77C83.0527 72.95 83.9127 74.08 84.7327 75.15H101.343C99.6727 73.02 96.6427 69.12 92.9527 64.3C94.5927 62.68 96.0927 60.9 97.4127 59C98.7327 60.94 100.243 62.79 101.963 64.51C109.063 71.61 118.493 75.52 128.533 75.52C137.533 75.52 146.053 72.38 152.833 66.61L145.683 55.37L145.703 55.36ZM66.5827 62.02C59.9427 62.02 54.5427 56.62 54.5427 49.98C54.5427 46.15 56.3427 42.74 59.1327 40.53C63.5827 46.95 68.8727 54.17 73.9227 60.9C71.6027 61.63 69.1427 62.02 66.5927 62.02H66.5827Z" fill="#231F20"/>
</svg>
