<svg xmlns="http://www.w3.org/2000/svg" width="15.533" height="15" viewBox="0 0 15.533 15">
  <g id="Group_915" data-name="Group 915" transform="translate(-520.721 -726.221)">
    <path id="Subtraction_9" data-name="Subtraction 9" d="M11.195,11.2H0V0H3.951V1.318H1.317V9.878H9.878V7.244h1.317v3.951Z" transform="translate(520.721 730.026)" fill="#fff"/>
    <g id="Group_914" data-name="Group 914" transform="translate(523.376 733.798) rotate(-45)">
      <path id="angle-right" d="M.625,7.5A.625.625,0,0,1,.183,6.43L2.866,3.749.183,1.066A.625.625,0,0,1,1.066.183L4.19,3.306a.624.624,0,0,1,0,.883L1.066,7.313A.619.619,0,0,1,.625,7.5Z" transform="translate(6.343 0)" fill="#fff"/>
      <rect id="Rectangle_96" data-name="Rectangle 96" width="1.153" height="9.803" rx="0.577" transform="translate(9.803 3.172) rotate(90)" fill="#fff"/>
    </g>
  </g>
</svg>
