<svg width="658" height="689" viewBox="0 0 658 689" fill="none" xmlns="http://www.w3.org/2000/svg">
<g filter="url(#filter0_d_8555_918)">
<path d="M517.691 77.0275L137.987 456.732C132.388 462.331 132.388 471.409 137.987 477.008L137.996 477.017C143.595 482.616 152.672 482.616 158.271 477.017L537.976 97.3122C543.575 91.7132 543.575 82.6354 537.976 77.0365L537.967 77.0275C532.368 71.4285 523.29 71.4285 517.691 77.0275Z" fill="black"/>
<path d="M162.565 481.299C154.36 489.504 140.87 489.251 132.994 480.553C125.623 472.424 126.356 459.781 134.119 452.018L176.713 409.424L152.148 410.941C144.941 411.384 138.152 414.443 133.057 419.551L44 508.595L103.826 511.174L106.406 571.001L195.45 481.956C200.558 476.849 203.617 470.059 204.06 462.866L205.577 438.3L162.565 481.312V481.299Z" fill="black"/>
<path d="M589.051 68.7809C593.959 63.8731 588.352 50.3085 576.527 38.4835C564.702 26.6585 551.137 21.0509 546.229 25.9587C541.322 30.8664 546.929 44.431 558.754 56.2561C570.579 68.0811 584.144 73.6886 589.051 68.7809Z" fill="#F26343"/>
<path d="M524.811 4.53367C522.257 7.08754 521.132 10.8172 521.271 15.3434C521.448 21.0706 520.854 26.8105 520.032 32.4872L515.278 65.0175L490.498 89.7977C486.515 93.7802 491.067 104.767 500.638 114.338C510.221 123.921 521.208 128.46 525.178 124.477L549.958 99.6971L582.488 94.9433C588.165 94.1089 593.892 93.5147 599.632 93.7043C604.171 93.8434 607.888 92.7182 610.442 90.1643C620.265 80.3407 609.051 53.209 585.396 29.5667C561.741 5.92439 534.609 -5.30254 524.798 4.52103L524.811 4.53367ZM593.336 73.0711C584.688 81.7188 567.228 73.3239 554.446 60.5419C541.677 47.7725 533.269 30.3126 541.917 21.6522C550.565 13.0044 568.025 21.3994 580.807 34.1814C593.589 46.9634 601.983 64.4106 593.336 73.0711Z" fill="#F26343"/>
</g>
<defs>
<filter id="filter0_d_8555_918" x="0" y="0.964355" width="658" height="688.036" filterUnits="userSpaceOnUse" color-interpolation-filters="sRGB">
<feFlood flood-opacity="0" result="BackgroundImageFix"/>
<feColorMatrix in="SourceAlpha" type="matrix" values="0 0 0 0 0 0 0 0 0 0 0 0 0 0 0 0 0 0 127 0" result="hardAlpha"/>
<feOffset dy="74"/>
<feGaussianBlur stdDeviation="22"/>
<feComposite in2="hardAlpha" operator="out"/>
<feColorMatrix type="matrix" values="0 0 0 0 0 0 0 0 0 0 0 0 0 0 0 0 0 0 0.2 0"/>
<feBlend mode="normal" in2="BackgroundImageFix" result="effect1_dropShadow_8555_918"/>
<feBlend mode="normal" in="SourceGraphic" in2="effect1_dropShadow_8555_918" result="shape"/>
</filter>
</defs>
</svg>
