<svg width="654" height="684" viewBox="0 0 654 684" fill="none" xmlns="http://www.w3.org/2000/svg">
<g filter="url(#filter0_d_9139_2562)">
<path d="M533.97 95.5471L157.341 472.163C151.788 477.716 142.785 477.716 137.219 472.163C131.666 466.61 131.666 457.606 137.219 452.041L513.848 75.425C519.401 69.8719 528.404 69.8719 533.957 75.425C539.51 80.9781 539.51 89.9814 533.957 95.5471" fill="black"/>
<path d="M161.597 476.419C153.463 484.553 140.077 484.301 132.258 475.676C124.954 467.604 125.672 455.063 133.378 447.369L175.625 405.123L151.259 406.621C144.119 407.062 137.383 410.096 132.321 415.158L44 503.504L103.334 506.061L105.89 565.394L194.211 477.074C199.273 472.012 202.307 465.275 202.748 458.135L204.246 433.77L161.585 476.431L161.597 476.419Z" fill="black"/>
<path d="M550.314 59.0806C537.647 46.413 529.311 29.0863 537.886 20.5111C546.474 11.9233 563.788 20.2593 576.455 32.9395C589.123 45.6071 597.459 62.9212 588.884 71.509C580.308 80.0967 562.982 71.7608 550.314 59.0806ZM581.026 28.3686C557.567 4.90957 530.658 -6.20921 520.912 3.52445C518.381 6.05545 517.915 9.84566 517.399 14.2529C516.845 19.0253 512.626 54.3586 511.644 62.0523C511.518 63.0093 511.09 63.9034 510.397 64.5833L486.863 88.1179C482.922 92.0592 487.429 102.964 496.924 112.458C506.418 121.953 517.323 126.461 521.264 122.519L544.799 98.9848C545.479 98.3048 546.373 97.8641 547.33 97.7382C555.024 96.7686 590.357 92.5377 595.129 91.9836C599.537 91.4674 603.327 91.0015 605.858 88.4705C615.591 78.7368 604.473 51.815 581.014 28.356" fill="#F26344"/>
<path d="M554.57 54.8243C566.306 66.5601 579.754 72.1132 584.627 67.2527C589.501 62.3921 583.935 48.9312 572.199 37.1954C560.463 25.4596 547.015 19.9065 542.142 24.7671C537.269 29.6402 542.834 43.0885 554.57 54.8243Z" fill="#F26344"/>
</g>
<defs>
<filter id="filter0_d_9139_2562" x="0" y="0" width="653.382" height="683.394" filterUnits="userSpaceOnUse" color-interpolation-filters="sRGB">
<feFlood flood-opacity="0" result="BackgroundImageFix"/>
<feColorMatrix in="SourceAlpha" type="matrix" values="0 0 0 0 0 0 0 0 0 0 0 0 0 0 0 0 0 0 127 0" result="hardAlpha"/>
<feOffset dy="74"/>
<feGaussianBlur stdDeviation="22"/>
<feComposite in2="hardAlpha" operator="out"/>
<feColorMatrix type="matrix" values="0 0 0 0 0 0 0 0 0 0 0 0 0 0 0 0 0 0 0.2 0"/>
<feBlend mode="normal" in2="BackgroundImageFix" result="effect1_dropShadow_9139_2562"/>
<feBlend mode="normal" in="SourceGraphic" in2="effect1_dropShadow_9139_2562" result="shape"/>
</filter>
</defs>
</svg>
