<svg width="653" height="683" viewBox="0 0 653 683" fill="none" xmlns="http://www.w3.org/2000/svg">
<g filter="url(#filter0_d_6021_8704)">
<path d="M515.218 73.8658L147.038 442.698C141.607 448.139 141.607 456.96 147.038 462.4C152.469 467.841 161.274 467.841 166.705 462.4L534.884 93.5675C540.315 88.127 540.315 79.3063 534.884 73.8658C529.454 68.4253 520.648 68.4253 515.218 73.8658Z" fill="black"/>
<path d="M170.86 466.568C163.139 474.303 150.589 474.294 142.868 466.568C135.147 458.833 135.147 446.261 142.868 438.526L184.57 396.749L147.39 389.339C141.921 388.254 136.273 389.963 132.34 393.912L44.6177 481.798L113.894 495.601L127.673 565.001L215.387 477.132C219.328 473.183 221.043 467.525 219.951 462.055L212.554 424.808L170.852 466.585L170.86 466.568Z" fill="black"/>
<path d="M584.404 65.8551C589.165 61.0855 583.728 47.9057 572.26 36.4173C560.792 24.9289 547.635 19.4822 542.874 24.2518C538.113 29.0214 543.55 42.2011 555.018 53.6895C566.486 65.178 579.643 70.6246 584.404 65.8551Z" fill="#F26343"/>
<path d="M522.116 3.45363C519.641 5.93219 518.541 9.55601 518.686 13.9576C518.865 19.5301 518.285 25.094 517.483 30.6067L512.876 62.2125L488.842 86.2887C484.986 90.1519 489.388 100.827 498.679 110.134C507.97 119.442 518.626 123.852 522.482 119.989L546.516 95.9124L578.066 91.2971C583.569 90.4937 589.131 89.9126 594.686 90.092C599.079 90.2288 602.697 89.1348 605.171 86.6562C614.692 77.1181 603.814 50.7599 580.881 27.7862C557.948 4.81256 531.637 -6.08455 522.116 3.45363ZM588.568 70.0243C580.173 78.4343 563.246 70.2636 550.859 57.8622C538.471 45.4524 530.323 28.4956 538.71 20.0856C547.105 11.6756 564.031 19.8463 576.419 32.2562C588.807 44.6661 596.955 61.6228 588.56 70.0328L588.568 70.0243Z" fill="#F26343"/>
</g>
<defs>
<filter id="filter0_d_6021_8704" x="0.617676" y="0" width="652.001" height="683.001" filterUnits="userSpaceOnUse" color-interpolation-filters="sRGB">
<feFlood flood-opacity="0" result="BackgroundImageFix"/>
<feColorMatrix in="SourceAlpha" type="matrix" values="0 0 0 0 0 0 0 0 0 0 0 0 0 0 0 0 0 0 127 0" result="hardAlpha"/>
<feOffset dy="74"/>
<feGaussianBlur stdDeviation="22"/>
<feComposite in2="hardAlpha" operator="out"/>
<feColorMatrix type="matrix" values="0 0 0 0 0 0 0 0 0 0 0 0 0 0 0 0 0 0 0.2 0"/>
<feBlend mode="normal" in2="BackgroundImageFix" result="effect1_dropShadow_6021_8704"/>
<feBlend mode="normal" in="SourceGraphic" in2="effect1_dropShadow_6021_8704" result="shape"/>
</filter>
</defs>
</svg>
