<svg width="600" height="101" viewBox="0 0 600 101" fill="none" xmlns="http://www.w3.org/2000/svg">
<path d="M532.283 62.2906L85.7666 62.2832C79.1829 62.2832 73.8458 56.9461 73.8384 50.355C73.8384 43.7713 79.1755 38.4342 85.7666 38.4268L532.283 38.4343C538.866 38.4343 544.203 43.7713 544.203 50.355C544.203 56.9386 538.866 62.2757 532.275 62.2832" fill="#E0D697"/>
<path d="M85.7665 67.3289C76.1225 67.3289 68.337 59.2449 68.8148 49.4963C69.2701 40.3822 77.1302 33.3731 86.2592 33.3806L136.346 33.3806L121.014 19.8251C116.52 15.8541 110.728 13.6595 104.726 13.6595L0 13.6744L33.6572 50.3622L5.69492e-06 87.05L104.711 87.05C110.713 87.05 116.505 84.8554 120.999 80.8844L136.331 67.3289L85.7516 67.3289L85.7665 67.3289Z" fill="#E0D697"/>
<path d="M563.588 50.3627C563.588 35.3442 568.918 20.1316 579.085 20.1316C589.266 20.1316 594.588 35.3367 594.581 50.3627C594.581 65.3811 589.259 80.5862 579.085 80.5937C568.911 80.6011 563.581 65.3886 563.588 50.3627ZM600 50.3627C600 22.5501 590.64 0.00746427 579.092 0C576.091 0 573.568 1.97061 570.65 4.27712C567.492 6.77772 544.046 25.2224 538.903 29.2009C538.262 29.6936 537.478 29.9698 536.664 29.9623L508.762 29.9623C504.089 29.9623 500.297 39.0988 500.297 50.3552C500.297 61.6116 504.089 70.7481 508.762 70.7481H536.664C537.47 70.7481 538.262 71.0168 538.903 71.5094C544.039 75.4955 567.492 93.9327 570.65 96.4332C573.568 98.7398 576.091 100.71 579.092 100.71C590.632 100.71 600 78.1603 600 50.3477" fill="#E0D697"/>
<path d="M568.634 50.3625C568.634 64.2762 573.315 75.5401 579.085 75.5476C584.855 75.555 589.535 64.2762 589.535 50.3625C589.535 36.4488 584.855 25.1849 579.085 25.1774C573.307 25.1774 568.634 36.4488 568.634 50.3625Z" fill="#E0D697"/>
</svg>
