<svg width="906" height="157" viewBox="0 0 906 157" fill="none" xmlns="http://www.w3.org/2000/svg">
<g clip-path="url(#clip0_6021_8576)">
<path d="M803.799 60.1934H130.322C120.384 60.1934 112.327 68.46 112.327 78.6574C112.327 88.8549 120.384 97.1215 130.322 97.1215H803.799C813.737 97.1215 821.794 88.8549 821.794 78.6574C821.794 68.46 813.737 60.1934 803.799 60.1934Z" fill="#E0D697"/>
<path d="M130.322 104.966C116.21 104.966 104.713 93.1863 104.713 78.6704C104.713 64.1545 116.185 52.3751 130.322 52.3751H206.616L179.358 10.5214C175.347 4.37105 168.622 0.67041 161.413 0.67041H0.956543L51.718 78.6704L0.956543 156.67H161.413C168.622 156.67 175.347 152.97 179.358 146.819L206.616 104.966H130.322Z" fill="#E0D697"/>
<path d="M874.408 117.657C883.113 117.657 890.17 100.202 890.17 78.6703C890.17 57.1384 883.113 39.6833 874.408 39.6833C865.704 39.6833 858.647 57.1384 858.647 78.6703C858.647 100.202 865.704 117.657 874.408 117.657Z" fill="#E0D697"/>
<path d="M874.408 0.67041C869.865 0.67041 865.576 3.04194 861.667 7.28986C856.743 12.6844 851.134 17.3493 845.373 21.7797L812.302 47.0847H768.342C761.287 47.0847 755.576 61.2357 755.576 78.6704C755.576 96.1051 761.287 110.256 768.342 110.256H812.302L845.373 135.561C851.134 139.965 856.743 144.656 861.667 150.051C865.551 154.299 869.865 156.67 874.408 156.67C891.82 156.67 905.931 121.749 905.931 78.6704C905.931 35.5919 891.82 0.67041 874.408 0.67041ZM874.408 125.476C859.053 125.476 851.033 101.917 851.033 78.6704C851.033 55.4242 859.053 31.8652 874.408 31.8652C889.764 31.8652 897.784 55.4242 897.784 78.6704C897.784 101.917 889.764 125.476 874.408 125.476Z" fill="#E0D697"/>
</g>
<defs>
<clipPath id="clip0_6021_8576">
<rect width="905" height="156" fill="white" transform="translate(0.956543 0.67041)"/>
</clipPath>
</defs>
</svg>
