<svg width="895" height="151" viewBox="0 0 895 151" fill="none" xmlns="http://www.w3.org/2000/svg">
<path d="M793.234 58.1011H128.451C118.648 58.1011 110.702 66.0477 110.702 75.8503V75.866C110.702 85.6686 118.648 93.6152 128.451 93.6152H793.234C803.037 93.6152 810.984 85.6686 810.984 75.866V75.8503C810.984 66.0477 803.037 58.1011 793.234 58.1011Z" fill="#E0D697"/>
<path d="M128.461 101.123C114.096 101.123 102.508 89.0922 103.227 74.5826C103.891 61.0138 115.601 50.5881 129.192 50.5881H203.765L180.933 30.4119C174.237 24.4908 165.615 21.2258 156.684 21.2369L0.774902 21.2258L50.8889 75.8554L0.774919 130.485L156.673 130.485C165.615 130.485 174.237 127.22 180.922 121.31L203.754 101.134L128.45 101.134L128.461 101.123Z" fill="#E0D697"/>
<path d="M862.922 113.35C871.514 113.35 878.48 96.5669 878.48 75.8638C878.48 55.1606 871.514 38.3774 862.922 38.3774C854.33 38.3774 847.364 55.1606 847.364 75.8638C847.364 96.5669 854.33 113.35 862.922 113.35Z" fill="#E0D697"/>
<path d="M862.928 0.872702C858.456 0.872702 854.206 3.15264 850.366 7.23657C845.507 12.4051 839.962 16.9096 834.274 21.1596L801.635 45.475L758.251 45.475C751.278 45.475 745.645 59.0771 745.645 75.8334C745.645 92.6118 751.289 106.203 758.251 106.192L801.635 106.192L834.274 130.507C839.973 134.746 845.507 139.24 850.366 144.43C854.217 148.525 858.456 150.794 862.928 150.794C880.127 150.794 894.061 117.226 894.05 75.8223C894.039 34.4185 880.116 0.839522 862.928 0.850589L862.928 0.872702ZM862.917 120.856C847.776 120.856 839.841 98.2231 839.841 75.8444C839.841 53.4879 847.765 30.8437 862.917 30.8326C878.057 30.8326 885.992 53.4658 885.992 75.8444C885.992 98.2231 878.068 120.845 862.917 120.856Z" fill="#E0D697"/>
</svg>
